<?xml version="1.0" encoding="UTF-8" standalone="no"?>
<!-- Created with Inkscape (http://www.inkscape.org/) -->

<svg
   xmlns:dc="http://purl.org/dc/elements/1.1/"
   xmlns:cc="http://creativecommons.org/ns#"
   xmlns:rdf="http://www.w3.org/1999/02/22-rdf-syntax-ns#"
   xmlns:svg="http://www.w3.org/2000/svg"
   xmlns="http://www.w3.org/2000/svg"
   xmlns:sodipodi="http://sodipodi.sourceforge.net/DTD/sodipodi-0.dtd"
   xmlns:inkscape="http://www.inkscape.org/namespaces/inkscape"
   width="662.49274"
   height="230.7782"
   id="svg7925"
   version="1.1"
   inkscape:version="0.48.4 r9939"
   sodipodi:docname="New document 23">
  <defs
     id="defs7927" />
  <sodipodi:namedview
     id="base"
     pagecolor="#ffffff"
     bordercolor="#666666"
     borderopacity="1.0"
     inkscape:pageopacity="0.0"
     inkscape:pageshadow="2"
     inkscape:zoom="0.35"
     inkscape:cx="151.96064"
     inkscape:cy="-147.46807"
     inkscape:document-units="px"
     inkscape:current-layer="layer1"
     showgrid="false"
     fit-margin-top="20"
     fit-margin-right="20"
     fit-margin-bottom="20"
     fit-margin-left="20"
     inkscape:window-width="850"
     inkscape:window-height="1022"
     inkscape:window-x="10"
     inkscape:window-y="10"
     inkscape:window-maximized="0" />
  <metadata
     id="metadata7930">
    <rdf:RDF>
      <cc:Work
         rdf:about="">
        <dc:format>image/svg+xml</dc:format>
        <dc:type
           rdf:resource="http://purl.org/dc/dcmitype/StillImage" />
        <dc:title></dc:title>
      </cc:Work>
    </rdf:RDF>
  </metadata>
  <g
     inkscape:label="Layer 1"
     inkscape:groupmode="layer"
     id="layer1"
     transform="translate(-223.03936,-154.11592)">
    <g
       transform="matrix(2.263825,0,0,-2.263825,72.135479,1784.6821)"
       id="g7780">
      <path
         inkscape:connector-curvature="0"
         id="path7107"
         style="fill:#ffffff;fill-opacity:1;fill-rule:nonzero;stroke:none"
         d="m 119.28,652.32 78.36,0 0,41.7 -78.36,0 0,-41.7 z" />
      <path
         inkscape:connector-curvature="0"
         id="path7109"
         style="fill:#000000;fill-opacity:1;fill-rule:nonzero;stroke:none"
         d="m 118.86,694.02 c 0,0.24 0.18,0.42 0.42,0.42 l 78.36,0 c 0.24,0 0.42,-0.18 0.42,-0.42 l 0,-41.7 c 0,-0.24 -0.18,-0.42 -0.42,-0.42 l -78.36,0 c -0.24,0 -0.42,0.18 -0.42,0.42 l 0,41.7 z m 0.84,-41.7 -0.42,0.48 78.36,0 -0.42,-0.48 0,41.7 0.42,-0.42 -78.36,0 0.42,0.42" />
      <text
         id="text7111"
         transform="matrix(0.94619609,0,-0.3235938,-0.94199893,107.82,633.42)">
        <tspan
           id="tspan7113"
           y="0"
           x="0"
           style="font-size:7.52888346px;font-variant:normal;font-weight:normal;font-stretch:normal;writing-mode:lr-tb;fill:#000000;fill-opacity:1;fill-rule:nonzero;stroke:none;font-family:Times New Roman;-inkscape-font-specification:TimesNewRoman">Q</tspan>
      </text>
      <text
         id="text7115"
         transform="matrix(0.94618531,0,-0.32362532,-0.94203157,113.16,632.1)">
        <tspan
           id="tspan7117"
           sodipodi:role="line"
           y="0"
           x="0 2.853555"
           style="font-size:5.17604733px;font-variant:normal;font-weight:normal;font-stretch:normal;writing-mode:lr-tb;fill:#000000;fill-opacity:1;fill-rule:nonzero;stroke:none;font-family:Times New Roman;-inkscape-font-specification:TimesNewRoman">1</tspan>
      </text>
      <text
         id="text7119"
         transform="matrix(0.94619609,0,-0.3235938,-0.94199893,116.76,633.42)">
        <tspan
           id="tspan7121"
           sodipodi:role="line"
           y="0"
           x="0 2.346 6.0871019 9.8282042 15.979302"
           style="font-size:7.52888346px;font-variant:normal;font-weight:normal;font-stretch:normal;writing-mode:lr-tb;fill:#000000;fill-opacity:1;fill-rule:nonzero;stroke:none;font-family:Times New Roman;-inkscape-font-specification:TimesNewRoman">(25%)</tspan>
      </text>
      <path
         inkscape:connector-curvature="0"
         id="path7123"
         style="fill:#000000;fill-opacity:1;fill-rule:nonzero;stroke:none"
         d="m 157.56,639.54 0.89999,0 0,70.44 -0.89999,0 0,-70.44 z" />
      <path
         inkscape:connector-curvature="0"
         id="path7125"
         style="fill:#000000;fill-opacity:1;fill-rule:nonzero;stroke:none"
         d="m 331.32,674.46 -237.84,0.06 0,0.9 237.84,-0.12" />
      <text
         id="text7127"
         transform="matrix(0.94619609,0,-0.3235938,-0.94199893,143.4,628.6801)">
        <tspan
           id="tspan7129"
           y="0"
           x="0"
           style="font-size:7.52888346px;font-variant:normal;font-weight:normal;font-stretch:normal;writing-mode:lr-tb;fill:#000000;fill-opacity:1;fill-rule:nonzero;stroke:none;font-family:Times New Roman;-inkscape-font-specification:TimesNewRoman">Q</tspan>
      </text>
      <text
         id="text7131"
         transform="matrix(0.94618531,0,-0.32362532,-0.94203157,148.74,627.36)">
        <tspan
           id="tspan7133"
           sodipodi:role="line"
           y="0"
           x="0 2.7898896"
           style="font-size:5.17604733px;font-variant:normal;font-weight:normal;font-stretch:normal;writing-mode:lr-tb;fill:#000000;fill-opacity:1;fill-rule:nonzero;stroke:none;font-family:Times New Roman;-inkscape-font-specification:TimesNewRoman">2</tspan>
      </text>
      <text
         id="text7135"
         transform="matrix(0.94619609,0,-0.3235938,-0.94199893,152.28,628.6801)">
        <tspan
           id="tspan7137"
           sodipodi:role="line"
           y="0"
           x="0 2.346 6.1503448 9.8914471 15.978549 18.324549 19.782894 25.428051 28.726454 32.975002 34.815063 38.113464"
           style="font-size:7.52888346px;font-variant:normal;font-weight:normal;font-stretch:normal;writing-mode:lr-tb;fill:#000000;fill-opacity:1;fill-rule:nonzero;stroke:none;font-family:Times New Roman;-inkscape-font-specification:TimesNewRoman">(50%) median</tspan>
      </text>
      <text
         id="text7139"
         transform="matrix(0.94619609,0,-0.3235938,-0.94199893,204.30021,636.66024)">
        <tspan
           id="tspan7141"
           y="0"
           x="0"
           style="font-size:7.52888346px;font-variant:normal;font-weight:normal;font-stretch:normal;writing-mode:lr-tb;fill:#000000;fill-opacity:1;fill-rule:nonzero;stroke:none;font-family:Times New Roman;-inkscape-font-specification:TimesNewRoman">Q</tspan>
      </text>
      <text
         id="text7143"
         transform="matrix(0.94618531,0,-0.32362532,-0.94203157,209.64,635.34)">
        <tspan
           id="tspan7145"
           y="0"
           x="0"
           style="font-size:5.17604733px;font-variant:normal;font-weight:normal;font-stretch:normal;writing-mode:lr-tb;fill:#000000;fill-opacity:1;fill-rule:nonzero;stroke:none;font-family:Times New Roman;-inkscape-font-specification:TimesNewRoman">3</tspan>
      </text>
      <text
         id="text7147"
         transform="matrix(0.94619609,0,-0.3235938,-0.94199893,213.66,636.66)">
        <tspan
           id="tspan7149"
           sodipodi:role="line"
           y="0"
           x="0 2.346 6.0871019 9.8921995 15.979302"
           style="font-size:7.52888346px;font-variant:normal;font-weight:normal;font-stretch:normal;writing-mode:lr-tb;fill:#000000;fill-opacity:1;fill-rule:nonzero;stroke:none;font-family:Times New Roman;-inkscape-font-specification:TimesNewRoman">(75%)</tspan>
      </text>
      <text
         id="text7151"
         transform="matrix(0.94619609,0,-0.3235938,-0.94199893,215.93985,662.99972)">
        <tspan
           id="tspan7153"
           y="0"
           x="0"
           style="font-size:7.52888346px;font-variant:normal;font-weight:normal;font-stretch:normal;writing-mode:lr-tb;fill:#000000;fill-opacity:1;fill-rule:nonzero;stroke:none;font-family:Times New Roman;-inkscape-font-specification:TimesNewRoman">Q</tspan>
      </text>
      <text
         id="text7155"
         transform="matrix(0.94618531,0,-0.32362532,-0.94203157,221.28,661.6801)">
        <tspan
           id="tspan7157"
           y="0"
           x="0"
           style="font-size:5.17604733px;font-variant:normal;font-weight:normal;font-stretch:normal;writing-mode:lr-tb;fill:#000000;fill-opacity:1;fill-rule:nonzero;stroke:none;font-family:Times New Roman;-inkscape-font-specification:TimesNewRoman">3</tspan>
      </text>
      <text
         id="text7159"
         transform="matrix(0.94619609,0,-0.3235938,-0.94199893,225.72,663)">
        <tspan
           id="tspan7161"
           sodipodi:role="line"
           y="0"
           x="0 4.2312326 6.1337814 9.8831654 11.785714 15.535098 16.993443 23.081297 25.934744 31.070196"
           style="font-size:7.52888346px;font-variant:normal;font-weight:normal;font-stretch:normal;writing-mode:lr-tb;fill:#000000;fill-opacity:1;fill-rule:nonzero;stroke:none;font-family:Times New Roman;-inkscape-font-specification:TimesNewRoman">+ 1.5 ×IQR</tspan>
      </text>
      <path
         inkscape:connector-curvature="0"
         id="path7163"
         style="fill:#1c477c;fill-opacity:1;fill-rule:nonzero;stroke:none"
         d="m 241.32,671.7 0.12,0.12 0.3,-0.36 -0.06,-0.06" />
      <path
         inkscape:connector-curvature="0"
         id="path7165"
         style="fill:#000000;fill-opacity:1;fill-rule:nonzero;stroke:none"
         d="m 242.16,677.82 0.18,-6.42 -0.48,0 -0.12,6.42" />
      <text
         id="text7167"
         transform="matrix(0.94619609,0,-0.3235938,-0.94199893,278.28,662.28)">
        <tspan
           id="tspan7169"
           y="0"
           x="0"
           style="font-size:7.52888346px;font-variant:normal;font-weight:normal;font-stretch:normal;writing-mode:lr-tb;fill:#000000;fill-opacity:1;fill-rule:nonzero;stroke:none;font-family:Times New Roman;-inkscape-font-specification:TimesNewRoman">Q</tspan>
      </text>
      <text
         id="text7171"
         transform="matrix(0.94618531,0,-0.32362532,-0.94203157,283.62,660.9601)">
        <tspan
           id="tspan7173"
           y="0"
           x="0"
           style="font-size:5.17604733px;font-variant:normal;font-weight:normal;font-stretch:normal;writing-mode:lr-tb;fill:#000000;fill-opacity:1;fill-rule:nonzero;stroke:none;font-family:Times New Roman;-inkscape-font-specification:TimesNewRoman">3</tspan>
      </text>
      <text
         id="text7175"
         transform="matrix(0.94619609,0,-0.3235938,-0.94199893,288.06,662.28)">
        <tspan
           id="tspan7177"
           sodipodi:role="line"
           y="0"
           x="0 4.2357497 6.1382985 9.8921995 11.287302 17.4384 20.228603 25.427298"
           style="font-size:7.52888346px;font-variant:normal;font-weight:normal;font-stretch:normal;writing-mode:lr-tb;fill:#000000;fill-opacity:1;fill-rule:nonzero;stroke:none;font-family:Times New Roman;-inkscape-font-specification:TimesNewRoman">+ 3 ×IQR</tspan>
      </text>
      <path
         inkscape:connector-curvature="0"
         id="path7179"
         style="fill:#000000;fill-opacity:1;fill-rule:nonzero;stroke:none"
         d="m 293.46,676.98 -0.12,-6.36 -0.42,0 0.06,6.36" />
      <text
         id="text7181"
         transform="matrix(0.94619609,0,-0.3235938,-0.94199893,230.04,700.6801)">
        <tspan
           id="tspan7183"
           sodipodi:role="line"
           y="0"
           x="0 6.5937963 9.8921995 14.140749 16.04405 19.785152"
           style="font-size:7.52888346px;font-variant:normal;font-weight:normal;font-stretch:normal;writing-mode:lr-tb;fill:#000000;fill-opacity:1;fill-rule:nonzero;stroke:none;font-family:Times New Roman;-inkscape-font-specification:TimesNewRoman">Medium</tspan>
      </text>
      <path
         inkscape:connector-curvature="0"
         id="path7185"
         style="fill:#000000;fill-opacity:1;fill-rule:nonzero;stroke:none"
         d="m 238.5,698.16 -18.96,-21.36 -0.66,0.6 18.96,21.36 0.66,-0.6 z m -17.58,-21.78 -3.66,-1.5 1.02,3.84" />
      <text
         id="text7187"
         transform="matrix(0.94619609,0,-0.3235938,-0.94199893,278.76,706.74)">
        <tspan
           id="tspan7189"
           sodipodi:role="line"
           y="0"
           x="0 4.6935058 7.9919095 10.33791 14.079012"
           style="font-size:7.52888346px;font-variant:normal;font-weight:normal;font-stretch:normal;writing-mode:lr-tb;fill:#000000;fill-opacity:1;fill-rule:nonzero;stroke:none;font-family:Times New Roman;-inkscape-font-specification:TimesNewRoman">Large</tspan>
      </text>
      <text
         id="text7191"
         transform="matrix(0.94619609,0,-0.3235938,-0.94199893,317.94026,703.20028)">
        <tspan
           id="tspan7193"
           sodipodi:role="line"
           y="0"
           x="0 4.6935058 8.4346085 10.782114 13.128114 16.426517 18.772518 20.675819 23.974224 26.320223 30.061325"
           style="font-size:7.52888346px;font-variant:normal;font-weight:normal;font-stretch:normal;writing-mode:lr-tb;fill:#000000;fill-opacity:1;fill-rule:nonzero;stroke:none;font-family:Times New Roman;-inkscape-font-specification:TimesNewRoman">Extra-large</tspan>
      </text>
      <path
         inkscape:connector-curvature="0"
         id="path7195"
         style="fill:#000000;fill-opacity:1;fill-rule:nonzero;stroke:none"
         d="m 281.7,701.7 -22.98,-26.16 -0.72,0.6 22.98,26.16 0.72,-0.6 z m -21.6,-26.58 -3.72,-1.5 1.02,3.84" />
      <path
         inkscape:connector-curvature="0"
         id="path7197"
         style="fill:#000000;fill-opacity:1;fill-rule:nonzero;stroke:none"
         d="m 327.96,698.16 -22.86,-22.74 -0.6,0.6 22.8,22.74 0.66,-0.6 z m -21.48,-23.28 -3.78,-1.26 1.26,3.78" />
      <path
         inkscape:connector-curvature="0"
         id="path7199"
         style="fill:#000000;fill-opacity:1;fill-rule:nonzero;stroke:none"
         d="m 93,662.22 0.90001,0 0,25.62 -0.90001,0 0,-25.62 z" />
      <path
         inkscape:connector-curvature="0"
         id="path7201"
         style="fill:#000000;fill-opacity:1;fill-rule:nonzero;stroke:none"
         d="m 332.16,687.84 -0.06,-25.62 -0.9,0 0.06,25.62" />
      <text
         id="text7203"
         transform="matrix(0.94619609,0,-0.3235938,-0.94199893,75.72,646.26)">
        <tspan
           id="tspan7205"
           y="0"
           x="0"
           style="font-size:7.52888346px;font-variant:normal;font-weight:normal;font-stretch:normal;writing-mode:lr-tb;fill:#000000;fill-opacity:1;fill-rule:nonzero;stroke:none;font-family:Times New Roman;-inkscape-font-specification:TimesNewRoman">Q</tspan>
      </text>
      <text
         id="text7207"
         transform="matrix(0.94618531,0,-0.32362532,-0.94203157,81.06,644.9401)">
        <tspan
           id="tspan7209"
           y="0"
           x="0"
           style="font-size:5.17604733px;font-variant:normal;font-weight:normal;font-stretch:normal;writing-mode:lr-tb;fill:#000000;fill-opacity:1;fill-rule:nonzero;stroke:none;font-family:Times New Roman;-inkscape-font-specification:TimesNewRoman">0</tspan>
      </text>
      <text
         id="text7211"
         transform="matrix(0.94619609,0,-0.3235938,-0.94199893,85.08,646.26)">
        <tspan
           id="tspan7213"
           sodipodi:role="line"
           y="0"
           x="0 2.346 7.9911566 9.8312159 13.635561"
           style="font-size:7.52888346px;font-variant:normal;font-weight:normal;font-stretch:normal;writing-mode:lr-tb;fill:#000000;fill-opacity:1;fill-rule:nonzero;stroke:none;font-family:Times New Roman;-inkscape-font-specification:TimesNewRoman">(min)</tspan>
      </text>
      <text
         id="text7215"
         transform="matrix(0.94619609,0,-0.3235938,-0.94199893,323.28009,649.49972)">
        <tspan
           id="tspan7217"
           y="0"
           x="0"
           style="font-size:7.52888346px;font-variant:normal;font-weight:normal;font-stretch:normal;writing-mode:lr-tb;fill:#000000;fill-opacity:1;fill-rule:nonzero;stroke:none;font-family:Times New Roman;-inkscape-font-specification:TimesNewRoman">Q</tspan>
      </text>
      <text
         id="text7219"
         transform="matrix(0.94618531,0,-0.32362532,-0.94203157,328.62,648.1801)">
        <tspan
           id="tspan7221"
           sodipodi:role="line"
           y="0"
           x="0 2.7898896"
           style="font-size:5.17604733px;font-variant:normal;font-weight:normal;font-stretch:normal;writing-mode:lr-tb;fill:#000000;fill-opacity:1;fill-rule:nonzero;stroke:none;font-family:Times New Roman;-inkscape-font-specification:TimesNewRoman">4</tspan>
      </text>
      <text
         id="text7223"
         transform="matrix(0.94619609,0,-0.3235938,-0.94199893,332.16,649.5001)">
        <tspan
           id="tspan7225"
           sodipodi:role="line"
           y="0"
           x="0 2.346 7.9911566 11.28956 15.030663"
           style="font-size:7.52888346px;font-variant:normal;font-weight:normal;font-stretch:normal;writing-mode:lr-tb;fill:#000000;fill-opacity:1;fill-rule:nonzero;stroke:none;font-family:Times New Roman;-inkscape-font-specification:TimesNewRoman">(max)</tspan>
      </text>
      <text
         id="text7227"
         transform="matrix(0.94619609,0,-0.3235938,-0.94199893,175.43981,703.20011)">
        <tspan
           id="tspan7229"
           sodipodi:role="line"
           y="0"
           x="0 4.2477961 9.8929529 13.191357 15.031416"
           style="font-size:7.52888346px;font-variant:normal;font-weight:normal;font-stretch:normal;writing-mode:lr-tb;fill:#000000;fill-opacity:1;fill-rule:nonzero;stroke:none;font-family:Times New Roman;-inkscape-font-specification:TimesNewRoman">Small</tspan>
      </text>
      <path
         inkscape:connector-curvature="0"
         id="path7231"
         style="fill:#000000;fill-opacity:1;fill-rule:nonzero;stroke:none"
         d="m 182.04,701.34 -12.96,-25.68 -0.78,0.36 12.9,25.74 0.84,-0.42 z m -11.46,-25.8 -3.24,-2.34 0,3.96" />
      <text
         id="text7233"
         transform="matrix(0.94619609,0,-0.3235938,-0.94199893,82.8,699.66)">
        <tspan
           id="tspan7235"
           sodipodi:role="line"
           y="0"
           x="0 4.7567487 8.4978504 10.845356 13.191357 16.489759 18.83576 23.083557 28.728712 32.027119 33.93042"
           style="font-size:7.52888346px;font-variant:normal;font-weight:normal;font-stretch:normal;writing-mode:lr-tb;fill:#000000;fill-opacity:1;fill-rule:nonzero;stroke:none;font-family:Times New Roman;-inkscape-font-specification:TimesNewRoman">Extra-Small</tspan>
      </text>
      <path
         inkscape:connector-curvature="0"
         id="path7237"
         style="fill:#000000;fill-opacity:1;fill-rule:nonzero;stroke:none"
         d="m 105.48,695.94 7.74,-19.74 -0.84,-0.36 -7.74,19.8 0.84,0.3 z m 8.76,-18.72 -0.36,-3.96 -2.94,2.64" />
    </g>
  </g>
</svg>
